<?xml version="1.0" encoding="UTF-8"?>
<svg id="Layer_1" data-name="Layer 1" xmlns="http://www.w3.org/2000/svg" viewBox="0 0 1422 524.92">
  <g>
    <path d="m831.06,444.86h-28.68v-108.48c0-16.67-4.35-29.05-13.05-37.14-8.7-8.09-19.92-12.14-33.65-12.14s-25.99,4.05-35.3,12.14c-9.32,8.09-13.97,20.47-13.97,37.14v108.48h-28.31v-108.48c0-17.16-4.66-29.66-13.97-37.51-9.32-7.84-20.96-11.77-34.93-11.77-7.35,0-14.84,1.72-22.43,5.15-7.6,3.44-13.92,8.77-18.94,16-5.03,7.23-7.54,16.61-7.54,28.13v108.48h-29.05v-183.86h29.05v18.75c6.12-6.86,13.48-12.01,22.06-15.44,8.58-3.43,17.52-5.27,26.84-5.52,12.01,0,23.84,2.39,35.49,7.17,11.64,4.78,21.39,12.32,29.23,22.61,6.62-10.05,15.69-17.47,27.21-22.25,11.52-4.78,23.53-7.17,36.04-7.17s25.13,3.01,36.4,9.01c11.27,6.01,20.35,14.77,27.21,26.29,6.86,11.53,10.3,25.5,10.3,41.92v108.48Z"/>
    <path d="m1034.05,361.75h-143.04c.49,15.94,4.78,28.56,12.87,37.88,8.09,9.32,18.39,15.44,30.89,18.39,12.5,2.94,25.86,2.7,40.08-.74,14.21-3.43,27.7-9.93,40.45-19.49l15.45,22.8c-12.02,9.32-24.52,16.18-37.51,20.59-13,4.41-25.99,6.74-38.98,6.99-30.65.74-54.06-7.78-70.23-25.56-16.18-17.77-24.27-42.59-24.27-74.46,0-27.21,7.66-48.91,22.98-65.09,15.32-16.18,37.57-24.14,66.74-23.9,19.12,0,35.42,3.92,48.91,11.77,13.48,7.85,23.41,19.49,29.79,34.93,3.18,7.6,5.21,16.06,6.07,25.37.86,9.32.79,19.49-.18,30.52Zm-83.11-75.38c-16.67,0-30.83,4.35-42.47,13.05-11.65,8.7-17.47,21.64-17.47,38.79h116.94c0-16.18-5.09-28.87-15.26-38.06-10.18-9.19-24.09-13.79-41.74-13.79Z"/>
    <path d="m1231.88,444.86h-29.05v-109.21c0-11.77-2.52-21.2-7.54-28.31-5.03-7.11-11.4-12.19-19.12-15.26-7.72-3.06-15.75-4.6-24.09-4.6s-16.12,1.72-24.09,5.15c-7.97,3.44-14.65,8.7-20.04,15.81-5.4,7.11-8.09,16.18-8.09,27.21v109.21h-29.05v-183.86h29.05v19.86c5.64-7.6,13.36-13.17,23.17-16.73,9.8-3.55,19.98-5.33,30.52-5.33,14.21,0,27.27,2.94,39.16,8.83,11.89,5.88,21.39,14.52,28.5,25.92,7.11,11.4,10.66,25.44,10.66,42.1v109.21Z"/>
    <path d="m1392.94,312v54.39c0,12.11-2.64,22.06-7.91,29.82-5.28,7.77-11.77,13.5-19.49,17.18-7.72,3.69-15.39,5.53-22.98,5.53-15.2,0-27.64-4.21-37.32-12.64-9.69-8.42-14.53-21.72-14.53-39.89v-54.39h-29.42v54.39c0,13.69,2.02,25.81,6.07,36.34,4.05,10.53,9.74,19.22,17.1,26.07,7.11,6.85,15.81,11.92,26.11,15.21,10.3,3.29,20.83,4.74,31.62,4.34,10.78-.4,20.71-2.57,29.79-6.52,9.07-3.95,16.05-9.87,20.96-17.77v20.54h29.05v-132.59h-29.05Z"/>
    <rect x="1261.74" y="260.84" width="160.26" height="33.6"/>
  </g>
  <g>
    <path d="m103,85v122h140v-122H103Zm112.5,93.5h-85v-65h85v65Z"/>
    <g>
      <rect x="342.41" y="332.41" width="63.55" height="21.18"/>
      <polygon points="391.01 228.99 391.01 245.19 345.53 245.19 345.53 228.99 272.63 228.99 272.63 353.59 310.64 353.59 310.64 283.81 342.41 283.81 342.41 312.47 405.96 312.47 405.96 228.99 391.01 228.99"/>
    </g>
    <path d="m368.53,85h-96.53v122h96.53c20.69,0,37.47-16.78,37.47-37.47v-47.06c0-20.69-16.78-37.47-37.47-37.47Zm14.47,66.78c0,14.48-11.74,26.22-26.22,26.22h-59.56v-65h59.56c14.48,0,26.22,11.74,26.22,26.22v12.56Z"/>
    <path d="m216.83,229h-87.67c-14.45,0-26.17,11.72-26.17,26.17v14.17c0,47.31,38.35,85.67,85.67,85.67h28.17c14.45,0,26.17-11.72,26.17-26.17v-73.67c0-14.45-11.72-26.17-26.17-26.17Zm-2.94,81.52c0,9.41-7.63,17.03-17.03,17.03h-8.09c-30.8,0-55.77-24.97-55.77-55.77h0c0-9.41,7.63-17.03,17.03-17.03h46.82c9.41,0,17.03,7.63,17.03,17.03v38.73Z"/>
    <g>
      <rect x="266.63" y="474.77" width="234.97" height="50.14"/>
      <path d="m0,0v270.21c0,97.64,83.06,176.79,185.51,176.79h315.49V0H0Zm459.63,400.45H181.75c-74.44,0-134.79-57.51-134.79-128.45V40.11h412.67v360.34Z"/>
    </g>
  </g>
</svg>